<?xml version="1.0" standalone="no"?><!DOCTYPE svg PUBLIC "-//W3C//DTD SVG 1.1//EN" "http://www.w3.org/Graphics/SVG/1.1/DTD/svg11.dtd"><svg t="1776907435305" class="icon" viewBox="0 0 1024 1024" version="1.1" xmlns="http://www.w3.org/2000/svg" p-id="3176" width="20" height="20" xmlns:xlink="http://www.w3.org/1999/xlink"><path d="M480.32 149.333333l4.736 0.085334c86.933333 1.6 143.786667 15.104 207.402667 36.757333l3.584 1.237333-282.88 16.597334a17.792 17.792 0 0 0-16.746667 18.112 19.136 19.136 0 0 0 17.322667 18.688l189.653333 17.962666v38.101334l-281.962667 6.698666a18.112 18.112 0 0 0-17.685333 18.112 18.56 18.56 0 0 0 17.664 18.56l396.842667 19.541334v30.293333l-320.768 9.856a19.008 19.008 0 0 0-18.410667 18.986667c0 10.304 8.149333 18.730667 18.410667 19.093333l205.930666 7.189333v38.037334l-350.570666 7.296a18.965333 18.965333 0 0 0-18.56 18.965333c0 10.346667 8.213333 18.816 18.56 19.114667l465.28 13.653333v31.253333l-343.210667 14.72a18.474667 18.474667 0 0 0-17.664 18.453334c0 9.856 7.829333 17.92 17.685333 18.24l228.48 7.189333v39.082667l-287.893333 8.746666a18.624 18.624 0 0 0-18.048 18.624 18.773333 18.773333 0 0 0 18.048 18.773334l403.221333 15.594666v35.498667l-283.584 12.8a19.776 19.776 0 0 0-18.88 19.754667c0 10.602667 8.277333 19.392 18.858667 20.010666l264.149333 15.573334-3.584 1.237333c-63.594667 21.653333-120.448 35.157333-207.402666 36.757333l-4.736 0.085334-2.154667-0.042667h-25.685333l-6.656-0.128a906.453333 906.453333 0 0 1-73.557334-4.629333l-5.162666-0.554667a366.165333 366.165333 0 0 1-128.234667-47.829333h-0.213333C135.296 758.250667 64 642.922667 64 511.082667 64 332.501333 194.944 184.106667 367.104 154.709333l5.141333-0.554666a906.453333 906.453333 0 0 1 73.578667-4.629334L452.714667 149.333333h25.429333L480.32 149.333333z m287.957333 584.618667l114.069334 16.213333-114.069334 15.957334v-32.170667z m-114.688-99.306667l261.845334 19.093334-261.845334 19.114666v-38.186666z m114.688-91.626666l219.946667 14.208-219.946667 14.229333v-28.437333z m-114.688-97.194667L1024 464.213333l-370.410667 18.389334v-36.778667z m114.688-85.12l149.184 14.208-149.184 14.229333v-28.437333z m-114.688-99.306667l210.496 16.896-210.496 16.874667v-33.770667z" p-id="3177" fill="#ffffff"></path></svg>